# xmcd CD database file
#
# Track frame offsets:
#	150
#	8318
#	20890
#	34701
#	56085
#	68070
#	83773
#	96011
#	109866
#	122747
#	141586
#	156461
#
# Disc length: 2182 seconds
#
# Revision: 0
# Processed by: cddbd v1.5.2PL0 Copyright (c) Steve Scherf et al.
# Submitted via: CDex 1.70beta3
#
DISCID=9e08840c
DTITLE=Red Holt - Look Out!! Look Out!!
DYEAR=1961
DGENRE=Jazz
TTITLE0=Look Out No. 3
TTITLE1=Little Liza Jane
TTITLE2=My Favorite Things
TTITLE3=Red Sails In The Sunset
TTITLE4=Drum Drunk
TTITLE5=Soul Mist
TTITLE6=Ghost Riders
TTITLE7=Stella By Starlight
TTITLE8=Sanctified Indian
TTITLE9=I Cover The Waterfront
TTITLE10=Tonight
TTITLE11=Look Out No. 1
EXTD=YEAR: 1961
EXTT0=
EXTT1=
EXTT2=
EXTT3=
EXTT4=
EXTT5=
EXTT6=
EXTT7=
EXTT8=
EXTT9=
EXTT10=
EXTT11=
PLAYORDER=
